<svg width="1110" height="42" viewBox="0 0 1110 42" fill="none" xmlns="http://www.w3.org/2000/svg">
<path d="M53.016 28H50.28L43.032 19.936V28H40.8V11.2H43.032V18.784L50.04 11.2H52.776L45.36 19.36L53.016 28ZM56.8751 18.016C57.5631 16.528 58.8111 15.784 60.6191 15.784V17.968C59.5951 17.92 58.7151 18.192 57.9791 18.784C57.2431 19.376 56.8751 20.328 56.8751 21.64V28H54.7871V16H56.8751V18.016ZM63.4699 22.96C63.6779 24.032 64.1659 24.864 64.9339 25.456C65.7179 26.048 66.6779 26.344 67.8139 26.344C69.3979 26.344 70.5499 25.76 71.2699 24.592L73.0459 25.6C71.8779 27.408 70.1179 28.312 67.7659 28.312C65.8619 28.312 64.3099 27.72 63.1099 26.536C61.9259 25.336 61.3339 23.824 61.3339 22C61.3339 20.192 61.9179 18.688 63.0859 17.488C64.2539 16.288 65.7659 15.688 67.6219 15.688C69.3819 15.688 70.8139 16.312 71.9179 17.56C73.0379 18.792 73.5979 20.28 73.5979 22.024C73.5979 22.328 73.5739 22.64 73.5259 22.96H63.4699ZM67.6219 17.656C66.5019 17.656 65.5739 17.976 64.8379 18.616C64.1019 19.24 63.6459 20.08 63.4699 21.136H71.4859C71.3099 20 70.8619 19.136 70.1419 18.544C69.4219 17.952 68.5819 17.656 67.6219 17.656ZM77.4386 22.96C77.6466 24.032 78.1346 24.864 78.9026 25.456C79.6866 26.048 80.6466 26.344 81.7826 26.344C83.3666 26.344 84.5186 25.76 85.2386 24.592L87.0146 25.6C85.8466 27.408 84.0866 28.312 81.7346 28.312C79.8306 28.312 78.2786 27.72 77.0786 26.536C75.8946 25.336 75.3026 23.824 75.3026 22C75.3026 20.192 75.8866 18.688 77.0546 17.488C78.2226 16.288 79.7346 15.688 81.5906 15.688C83.3506 15.688 84.7826 16.312 85.8866 17.56C87.0066 18.792 87.5666 20.28 87.5666 22.024C87.5666 22.328 87.5426 22.64 87.4946 22.96H77.4386ZM81.5906 17.656C80.4706 17.656 79.5426 17.976 78.8066 18.616C78.0706 19.24 77.6146 20.08 77.4386 21.136H85.4546C85.2786 20 84.8306 19.136 84.1106 18.544C83.3906 17.952 82.5506 17.656 81.5906 17.656ZM99.8794 11.2H101.967V28H99.8794V25.936C98.8394 27.52 97.3274 28.312 95.3434 28.312C93.6634 28.312 92.2314 27.704 91.0474 26.488C89.8634 25.256 89.2714 23.76 89.2714 22C89.2714 20.24 89.8634 18.752 91.0474 17.536C92.2314 16.304 93.6634 15.688 95.3434 15.688C97.3274 15.688 98.8394 16.48 99.8794 18.064V11.2ZM95.6074 26.296C96.8234 26.296 97.8394 25.888 98.6554 25.072C99.4714 24.24 99.8794 23.216 99.8794 22C99.8794 20.784 99.4714 19.768 98.6554 18.952C97.8394 18.12 96.8234 17.704 95.6074 17.704C94.4074 17.704 93.3994 18.12 92.5834 18.952C91.7674 19.768 91.3594 20.784 91.3594 22C91.3594 23.216 91.7674 24.24 92.5834 25.072C93.3994 25.888 94.4074 26.296 95.6074 26.296Z" fill="white"/>
<rect y="6" width="30" height="30" rx="6" fill="white"/>
<path d="M9.70947 27.6781C9.15719 27.6781 8.70947 27.2304 8.70947 26.6781V15.2258C8.70947 14.6735 9.15719 14.2258 9.70947 14.2258H10.7611C11.3134 14.2258 11.7611 14.6735 11.7611 15.2258V26.6781C11.7611 27.2304 11.3134 27.6781 10.7611 27.6781H9.70947ZM12.7492 21.4557C12.67 21.2417 12.6664 21.007 12.739 20.7906L14.7137 14.9076C14.8505 14.5003 15.2321 14.2258 15.6618 14.2258H16.5646C17.2468 14.2258 17.7288 14.894 17.5135 15.5414L15.7666 20.7949C15.6955 21.0086 15.6987 21.2401 15.7756 21.4519L17.5502 26.3367C17.7871 26.9888 17.3041 27.6781 16.6103 27.6781H15.7471C15.3286 27.6781 14.9544 27.4175 14.8092 27.0251L12.7492 21.4557Z" fill="#1E255E"/>
<path d="M19.0114 26.3329C19.0114 25.7564 19.2928 25.3272 19.8555 25.0453C20.1008 24.93 20.3605 24.8724 20.6347 24.8724C21.2839 24.8724 21.7601 25.1222 22.0631 25.6219C22.1929 25.8396 22.2579 26.0767 22.2579 26.3329C22.2579 26.9222 21.9693 27.345 21.3921 27.6013C21.1469 27.7166 20.8944 27.7742 20.6347 27.7742C19.9709 27.7742 19.4948 27.518 19.2062 27.0055C19.0764 26.7877 19.0114 26.5635 19.0114 26.3329Z" fill="#1E255E"/>
<rect x="1074" y="3" width="36" height="36" rx="6" fill="white"/>
<line x1="1084" y1="14.5" x2="1100.64" y2="14.5" stroke="#1E255E" stroke-width="2" stroke-linecap="round"/>
<line x1="1084" y1="20.5" x2="1100.64" y2="20.5" stroke="#1E255E" stroke-width="2" stroke-linecap="round"/>
<line x1="1084" y1="26.5" x2="1100.64" y2="26.5" stroke="#1E255E" stroke-width="2" stroke-linecap="round"/>
</svg>
